<?xml version="1.0" encoding="UTF-8"?>
<svg xmlns="http://www.w3.org/2000/svg" viewBox="0 0 240 120" width="240" height="120">
  <!-- Free, simple dress + tux silhouette for badge use -->
  <g fill="#000000" stroke="none">
    <!-- Dress (left) -->
    <path d="M30 10c4 0 8 2 10 6 3 6 6 18 6 30 0 6-1 10-3 14-2 4-5 6-7 8-3 2-6 3-9 3s-6-1-9-3c-2-2-5-4-7-8-2-4-3-8-3-14 0-12 3-24 6-30 2-4 6-6 10-6z"/>
    <!-- Tux jacket (right) -->
    <path d="M170 8c8 0 14 6 14 14v6c0 6-3 10-6 14l-6 8c-1 1-2 2-3 2h-20c-1 0-2-1-3-2l-6-8c-3-4-6-8-6-14v-6c0-8 6-14 14-14h22zM150 18l8 6 8-6"/>
    <!-- Bow tie -->
    <path d="M160 22c-2 0-6 3-6 3s4 3 6 3 6-3 6-3-4-3-6-3z"/>
  </g>
</svg>
