<?xml version="1.0" encoding="UTF-8"?>
<svg xmlns="http://www.w3.org/2000/svg" viewBox="0 0 64 64" width="64" height="64" aria-hidden="true" focusable="false">
  <!-- Simple paired dress + tux icon, uses currentColor -->
  <g fill="none" stroke="currentColor" stroke-width="2" stroke-linecap="round" stroke-linejoin="round">
    <!-- Dress (left) -->
    <path d="M18 10c0 4 2 6 4 6s4-2 4-6" />
    <path d="M12 24c4-2 8-2 12 0l-4 16h-4l-4-16z" fill="currentColor" stroke="none"/>
    <!-- Tux (right) -->
    <path d="M44 10c0 4-2 6-4 6s-4-2-4-6" />
    <path d="M48 24c-4-2-8-2-12 0l4 16h4l4-16z" fill="currentColor" stroke="none"/>
    <!-- Bow tie / tie detail -->
    <path d="M32 18l2 3-2 3-2-3z" />
  </g>
</svg>
